<svg width="512" height="512" viewBox="0 0 512 512" fill="none" xmlns="http://www.w3.org/2000/svg">
<path d="M234.771 405.438C245.994 405.334 256.725 400.812 264.638 392.851L356.371 301.331C360.344 297.334 362.574 291.927 362.574 286.291C362.574 280.655 360.344 275.248 356.371 271.251C354.388 269.251 352.028 267.664 349.429 266.581C346.829 265.498 344.04 264.941 341.224 264.941C338.408 264.941 335.62 265.498 333.02 266.581C330.42 267.664 328.061 269.251 326.078 271.251L256.104 341.438V128.104C256.104 122.446 253.857 117.02 249.856 113.019C245.855 109.018 240.429 106.771 234.771 106.771C229.113 106.771 223.687 109.018 219.686 113.019C215.685 117.02 213.438 122.446 213.438 128.104L213.438 341.438L143.251 271.251C139.262 267.234 133.841 264.966 128.18 264.946C122.519 264.926 117.081 267.155 113.064 271.144C109.047 275.133 106.779 280.554 106.759 286.215C106.739 291.877 108.969 297.314 112.958 301.331L204.691 392.851C212.656 400.863 223.473 405.39 234.771 405.438Z" fill="#FE5D49"/>
</svg>
