<svg width="80" height="80" viewBox="0 0 80 80" fill="none" xmlns="http://www.w3.org/2000/svg">
<g clip-path="url(#clip0_411_5)">
<path d="M63.1688 33.8938L47.3667 18.0896C45.4109 16.1396 42.7618 15.0445 40 15.0445C37.2382 15.0445 34.5891 16.1396 32.6333 18.0896L16.8312 33.8938C16.2488 34.4725 15.787 35.161 15.4727 35.9196C15.1583 36.6781 14.9977 37.4914 15 38.3125V58.7646C15 60.4222 15.6585 62.0119 16.8306 63.184C18.0027 64.3561 19.5924 65.0146 21.25 65.0146H58.75C60.4076 65.0146 61.9973 64.3561 63.1694 63.184C64.3415 62.0119 65 60.4222 65 58.7646V38.3125C65.0024 37.4914 64.8417 36.6781 64.5273 35.9196C64.213 35.161 63.7512 34.4725 63.1688 33.8938ZM46.25 60.8479H33.75V52.6521C33.75 50.9945 34.4085 49.4048 35.5806 48.2327C36.7527 47.0606 38.3424 46.4021 40 46.4021C41.6576 46.4021 43.2473 47.0606 44.4194 48.2327C45.5915 49.4048 46.25 50.9945 46.25 52.6521V60.8479ZM60.8334 58.7646C60.8334 59.3171 60.6139 59.847 60.2232 60.2378C59.8325 60.6285 59.3026 60.8479 58.75 60.8479H50.4167V52.6521C50.4167 49.8894 49.3192 47.2399 47.3657 45.2864C45.4122 43.3329 42.7627 42.2354 40 42.2354C37.2373 42.2354 34.5878 43.3329 32.6343 45.2864C30.6808 47.2399 29.5833 49.8894 29.5833 52.6521V60.8479H21.25C20.6975 60.8479 20.1676 60.6285 19.7769 60.2378C19.3862 59.847 19.1667 59.3171 19.1667 58.7646V38.3125C19.1686 37.7604 19.3879 37.2312 19.7771 36.8396L35.5792 21.0417C36.7535 19.8728 38.3431 19.2165 40 19.2165C41.657 19.2165 43.2465 19.8728 44.4208 21.0417L60.2229 36.8458C60.6106 37.2359 60.8298 37.7626 60.8334 38.3125V58.7646Z" fill="black"/>
</g>
<defs>
<clipPath id="clip0_411_5">
<rect width="50" height="50" fill="white" transform="translate(15 15)"/>
</clipPath>
</defs>
</svg>
