<?xml version="1.0" encoding="iso-8859-1"?>
<!-- Generator: Adobe Illustrator 19.0.0, SVG Export Plug-In . SVG Version: 6.00 Build 0)  -->
<svg version="1.1" id="Capa_1" xmlns="http://www.w3.org/2000/svg" xmlns:xlink="http://www.w3.org/1999/xlink" x="0px" y="0px"
	 viewBox="0 0 512 512" style="enable-background:new 0 0 512 512;" xml:space="preserve">
<path style="fill:#455A64;" d="M181.333,0h149.333c41.237,0,74.667,33.429,74.667,74.667v362.667
	c0,41.237-33.429,74.667-74.667,74.667H181.333c-41.237,0-74.667-33.429-74.667-74.667V74.667C106.667,33.429,140.096,0,181.333,0z"
	/>
<rect x="128" y="106.667" style="fill:#00BCD4;" width="256" height="277.333"/>
<g>
	<path style="fill:#FAFAFA;" d="M256,469.333c-11.782,0-21.333-9.551-21.333-21.333c0-11.782,9.551-21.333,21.333-21.333
		c11.782,0,21.333,9.551,21.333,21.333C277.333,459.782,267.782,469.333,256,469.333z"/>
	<path style="fill:#FAFAFA;" d="M288,64h-64c-5.891,0-10.667-4.776-10.667-10.667S218.109,42.667,224,42.667h64
		c5.891,0,10.667,4.776,10.667,10.667S293.891,64,288,64z"/>
	<path style="fill:#FAFAFA;" d="M331.093,64c-5.891,0-10.667-4.776-10.667-10.667c-0.001-5.809,4.646-10.55,10.453-10.667h0.213
		c5.891,0,10.667,4.776,10.667,10.667S336.984,64,331.093,64z"/>
</g>
<g>
</g>
<g>
</g>
<g>
</g>
<g>
</g>
<g>
</g>
<g>
</g>
<g>
</g>
<g>
</g>
<g>
</g>
<g>
</g>
<g>
</g>
<g>
</g>
<g>
</g>
<g>
</g>
<g>
</g>
</svg>
