<?xml version="1.0" encoding="utf-8"?>
<!-- Generator: Adobe Illustrator 24.1.1, SVG Export Plug-In . SVG Version: 6.00 Build 0)  -->
<svg version="1.1" id="Layer_1" xmlns="http://www.w3.org/2000/svg" xmlns:xlink="http://www.w3.org/1999/xlink" x="0px" y="0px"
	 viewBox="0 0 512 512" style="enable-background:new 0 0 512 512;" xml:space="preserve">
<g>
	<path d="M408.6,382.9c57.1,0,103.3-46.3,103.4-103.4c0-57.1-46.3-103.3-103.4-103.4h-23v23l22.4,5c2.1-9.4,3.1-18.8,3.1-28.1
		c0-33.1-13-64.2-34.6-88.2c-21.7-24.1-52.1-41.5-87.6-47.9h0c-10-1.8-19.9-2.7-29.8-2.7c-34.9,0-68,11-94.5,30.3
		c-26.5,19.3-46.6,47.3-54.1,80.7l22.4,5l0.9-22.9l-5.4-0.1c-34,0-65.3,12.8-88.5,34.1c-23.2,21.2-38.5,51.2-40,84.7L0,254.2
		c0,48.9,29.9,93.1,75.6,113c11.6,5.1,25.2-0.2,30.2-11.9c5.1-11.6-0.2-25.2-11.9-30.2c-29.8-13-48.1-40.9-48.1-70.9L46,251
		c0.9-20.8,10.2-39.2,25.1-52.8c14.9-13.6,35.1-22,57.5-22l3.6,0.1c11.1,0.4,20.9-7.1,23.3-17.9c4.9-21.6,17.8-40.1,36.3-53.6
		c18.5-13.5,42.3-21.5,67.5-21.5c7.1,0,14.3,0.6,21.5,1.9h0c25.7,4.7,46.9,17.1,61.6,33.4c14.7,16.4,22.9,36.5,22.9,57.5
		c0,5.9-0.6,12-2,18.1c-1.5,6.8,0.1,13.9,4.5,19.4c4.4,5.4,11,8.6,17.9,8.6h23c31.7,0.1,57.4,25.7,57.4,57.4
		c-0.1,31.7-25.7,57.4-57.4,57.4c-12.7,0-23,10.3-23,23C385.7,372.6,396,382.9,408.6,382.9L408.6,382.9z"/>
	<path d="M224.9,245.1v206.7c0,12.7,10.3,23,23,23s23-10.3,23-23V245.1c0-12.7-10.3-23-23-23S224.9,232.4,224.9,245.1"/>
	<path d="M162.7,399.1l68.9,68.9c4.3,4.3,10.2,6.7,16.2,6.7c6,0,12-2.5,16.2-6.7l68.9-68.9c9-9,9-23.5,0-32.5s-23.5-9-32.5,0
		l-52.7,52.7l-52.7-52.7c-9-9-23.5-9-32.5,0S153.8,390.2,162.7,399.1L162.7,399.1z"/>
</g>
</svg>
