<svg width="512" height="512" viewBox="0 0 512 512" fill="none" xmlns="http://www.w3.org/2000/svg">
<g clip-path="url(#clip0_5_70)">
<path d="M226.133 271.147C224.134 269.163 222.547 266.804 221.464 264.204C220.381 261.605 219.823 258.816 219.823 256C219.823 253.184 220.381 250.395 221.464 247.796C222.547 245.196 224.134 242.837 226.133 240.853L324.053 143.147C326.053 141.163 327.64 138.804 328.723 136.204C329.806 133.605 330.364 130.816 330.364 128C330.364 125.184 329.806 122.395 328.723 119.796C327.64 117.196 326.053 114.837 324.053 112.853C320.056 108.88 314.649 106.65 309.013 106.65C303.377 106.65 297.97 108.88 293.973 112.853L196.053 210.773C184.068 222.773 177.336 239.04 177.336 256C177.336 272.96 184.068 289.227 196.053 301.227L293.973 399.147C297.947 403.088 303.31 405.31 308.907 405.333C311.714 405.35 314.497 404.811 317.097 403.75C319.696 402.688 322.06 401.124 324.053 399.147C326.053 397.163 327.64 394.804 328.723 392.204C329.806 389.605 330.364 386.816 330.364 384C330.364 381.184 329.806 378.395 328.723 375.796C327.64 373.196 326.053 370.837 324.053 368.853L226.133 271.147Z" fill="#689BD2"/>
</g>
<defs>
<clipPath id="clip0_5_70">
<rect width="512" height="512" fill="white"/>
</clipPath>
</defs>
</svg>
