<svg width="80" height="80" viewBox="0 0 80 80" fill="none" xmlns="http://www.w3.org/2000/svg">
<circle cx="40" cy="40" r="20" fill="#ED6E52" fill-opacity="0.2"/>
<mask id="mask0_416_37" style="mask-type:alpha" maskUnits="userSpaceOnUse" x="15" y="15" width="50" height="50">
<g clip-path="url(#clip0_416_37)">
<path d="M61.9896 43.4625L58.0313 29.2208C56.871 25.0486 54.3495 21.3839 50.8674 18.8093C47.3853 16.2347 43.1425 14.8979 38.8135 15.0114C34.4844 15.1249 30.3175 16.6822 26.9751 19.4357C23.6328 22.1893 21.3067 25.981 20.3667 30.2083L17.3021 43.9896C16.9636 45.5124 16.9714 47.0917 17.325 48.6111C17.6786 50.1304 18.3689 51.551 19.345 52.7678C20.321 53.9847 21.558 54.9668 22.9644 55.6416C24.3708 56.3164 25.9109 56.6667 27.4708 56.6667H29.7917C30.2698 59.0214 31.5474 61.1385 33.4078 62.6591C35.2682 64.1798 37.5972 65.0104 40 65.0104C42.4028 65.0104 44.7318 64.1798 46.5922 62.6591C48.4527 61.1385 49.7302 59.0214 50.2083 56.6667H51.9542C53.56 56.6668 55.1442 56.2956 56.5828 55.5822C58.0215 54.8687 59.2757 53.8323 60.2476 52.5539C61.2194 51.2755 61.8825 49.7897 62.185 48.2126C62.4876 46.6355 62.4214 45.0098 61.9917 43.4625H61.9896ZM40 60.8333C38.712 60.828 37.457 60.4248 36.4069 59.679C35.3567 58.9331 34.5627 57.8811 34.1333 56.6667H45.8667C45.4373 57.8811 44.6433 58.9331 43.5931 59.679C42.543 60.4248 41.2881 60.828 40 60.8333V60.8333ZM56.9292 50.0313C56.3486 50.8014 55.5965 51.4255 54.7325 51.8541C53.8685 52.2826 52.9165 52.5038 51.9521 52.5H27.4708C26.535 52.4998 25.6111 52.2895 24.7674 51.8845C23.9237 51.4796 23.1817 50.8903 22.5962 50.1602C22.0107 49.4301 21.5966 48.5779 21.3845 47.6663C21.1724 46.7548 21.1678 45.8073 21.3708 44.8938L24.4333 31.1104C25.1716 27.79 26.9986 24.8117 29.6239 22.6489C32.2492 20.486 35.5221 19.2629 38.9225 19.1738C42.3228 19.0847 45.6553 20.1348 48.3902 22.1572C51.1252 24.1796 53.1056 27.0582 54.0167 30.3354L57.975 44.5771C58.2366 45.5049 58.2782 46.481 58.0967 47.4278C57.9151 48.3745 57.5154 49.266 56.9292 50.0313V50.0313Z" fill="black"/>
</g>
</mask>
<g mask="url(#mask0_416_37)">
<rect x="15" y="15" width="50" height="54" fill="#EB6853"/>
</g>
<defs>
<clipPath id="clip0_416_37">
<rect width="50" height="50" fill="white" transform="translate(15 15)"/>
</clipPath>
</defs>
</svg>
