<svg width="80" height="80" viewBox="0 0 80 80" fill="none" xmlns="http://www.w3.org/2000/svg">
<g clip-path="url(#clip0_202_24)">
<path d="M29.5833 15H23.3333C21.1232 15 19.0036 15.878 17.4408 17.4408C15.878 19.0036 15 21.1232 15 23.3333L15 29.5833C15 31.7935 15.878 33.9131 17.4408 35.4759C19.0036 37.0387 21.1232 37.9167 23.3333 37.9167H29.5833C31.7935 37.9167 33.9131 37.0387 35.4759 35.4759C37.0387 33.9131 37.9167 31.7935 37.9167 29.5833V23.3333C37.9167 21.1232 37.0387 19.0036 35.4759 17.4408C33.9131 15.878 31.7935 15 29.5833 15V15ZM33.75 29.5833C33.75 30.6884 33.311 31.7482 32.5296 32.5296C31.7482 33.311 30.6884 33.75 29.5833 33.75H23.3333C22.2283 33.75 21.1685 33.311 20.3871 32.5296C19.6057 31.7482 19.1667 30.6884 19.1667 29.5833V23.3333C19.1667 22.2283 19.6057 21.1685 20.3871 20.3871C21.1685 19.6057 22.2283 19.1667 23.3333 19.1667H29.5833C30.6884 19.1667 31.7482 19.6057 32.5296 20.3871C33.311 21.1685 33.75 22.2283 33.75 23.3333V29.5833Z" fill="black"/>
<path d="M56.6667 15H50.4167C48.2066 15 46.087 15.878 44.5242 17.4408C42.9613 19.0036 42.0834 21.1232 42.0834 23.3333V29.5833C42.0834 31.7935 42.9613 33.9131 44.5242 35.4759C46.087 37.0387 48.2066 37.9167 50.4167 37.9167H56.6667C58.8768 37.9167 60.9965 37.0387 62.5593 35.4759C64.1221 33.9131 65 31.7935 65 29.5833V23.3333C65 21.1232 64.1221 19.0036 62.5593 17.4408C60.9965 15.878 58.8768 15 56.6667 15V15ZM60.8334 29.5833C60.8334 30.6884 60.3944 31.7482 59.613 32.5296C58.8316 33.311 57.7718 33.75 56.6667 33.75H50.4167C49.3116 33.75 48.2518 33.311 47.4704 32.5296C46.689 31.7482 46.25 30.6884 46.25 29.5833V23.3333C46.25 22.2283 46.689 21.1685 47.4704 20.3871C48.2518 19.6057 49.3116 19.1667 50.4167 19.1667H56.6667C57.7718 19.1667 58.8316 19.6057 59.613 20.3871C60.3944 21.1685 60.8334 22.2283 60.8334 23.3333V29.5833Z" fill="black"/>
<path d="M29.5833 42.0833H23.3333C21.1232 42.0833 19.0036 42.9612 17.4408 44.524C15.878 46.0868 15 48.2064 15 50.4166L15 56.6666C15 58.8767 15.878 60.9963 17.4408 62.5591C19.0036 64.1219 21.1232 64.9999 23.3333 64.9999H29.5833C31.7935 64.9999 33.9131 64.1219 35.4759 62.5591C37.0387 60.9963 37.9167 58.8767 37.9167 56.6666V50.4166C37.9167 48.2064 37.0387 46.0868 35.4759 44.524C33.9131 42.9612 31.7935 42.0833 29.5833 42.0833ZM33.75 56.6666C33.75 57.7717 33.311 58.8315 32.5296 59.6129C31.7482 60.3943 30.6884 60.8333 29.5833 60.8333H23.3333C22.2283 60.8333 21.1685 60.3943 20.3871 59.6129C19.6057 58.8315 19.1667 57.7717 19.1667 56.6666V50.4166C19.1667 49.3115 19.6057 48.2517 20.3871 47.4703C21.1685 46.6889 22.2283 46.2499 23.3333 46.2499H29.5833C30.6884 46.2499 31.7482 46.6889 32.5296 47.4703C33.311 48.2517 33.75 49.3115 33.75 50.4166V56.6666Z" fill="black"/>
<path d="M56.6667 42.0833H50.4167C48.2066 42.0833 46.087 42.9612 44.5242 44.524C42.9613 46.0868 42.0834 48.2064 42.0834 50.4166V56.6666C42.0834 58.8767 42.9613 60.9963 44.5242 62.5591C46.087 64.1219 48.2066 64.9999 50.4167 64.9999H56.6667C58.8768 64.9999 60.9965 64.1219 62.5593 62.5591C64.1221 60.9963 65 58.8767 65 56.6666V50.4166C65 48.2064 64.1221 46.0868 62.5593 44.524C60.9965 42.9612 58.8768 42.0833 56.6667 42.0833ZM60.8334 56.6666C60.8334 57.7717 60.3944 58.8315 59.613 59.6129C58.8316 60.3943 57.7718 60.8333 56.6667 60.8333H50.4167C49.3116 60.8333 48.2518 60.3943 47.4704 59.6129C46.689 58.8315 46.25 57.7717 46.25 56.6666V50.4166C46.25 49.3115 46.689 48.2517 47.4704 47.4703C48.2518 46.6889 49.3116 46.2499 50.4167 46.2499H56.6667C57.7718 46.2499 58.8316 46.6889 59.613 47.4703C60.3944 48.2517 60.8334 49.3115 60.8334 50.4166V56.6666Z" fill="black"/>
</g>
<defs>
<clipPath id="clip0_202_24">
<rect width="50" height="50" fill="white" transform="translate(15 15)"/>
</clipPath>
</defs>
</svg>
