<svg width="80" height="80" viewBox="0 0 80 80" fill="none" xmlns="http://www.w3.org/2000/svg">
<g clip-path="url(#clip0_202_27)">
<path d="M56.6667 15H23.3333C21.1232 15 19.0036 15.878 17.4408 17.4408C15.878 19.0036 15 21.1232 15 23.3333L15 48.3333C15 50.5435 15.878 52.6631 17.4408 54.2259C19.0036 55.7887 21.1232 56.6667 23.3333 56.6667H29.375L38.6479 64.5063C39.0241 64.8246 39.5009 64.9993 39.9937 64.9993C40.4866 64.9993 40.9634 64.8246 41.3396 64.5063L50.625 56.6667H56.6667C58.8768 56.6667 60.9964 55.7887 62.5592 54.2259C64.122 52.6631 65 50.5435 65 48.3333V23.3333C65 21.1232 64.122 19.0036 62.5592 17.4408C60.9964 15.878 58.8768 15 56.6667 15V15ZM60.8333 48.3333C60.8333 49.4384 60.3943 50.4982 59.6129 51.2796C58.8315 52.061 57.7717 52.5 56.6667 52.5H50.625C49.6402 52.5003 48.6873 52.8494 47.9354 53.4854L40 60.1875L32.0687 53.4854C31.3158 52.8485 30.3612 52.4993 29.375 52.5H23.3333C22.2283 52.5 21.1685 52.061 20.3871 51.2796C19.6057 50.4982 19.1667 49.4384 19.1667 48.3333V23.3333C19.1667 22.2283 19.6057 21.1685 20.3871 20.3871C21.1685 19.6057 22.2283 19.1667 23.3333 19.1667H56.6667C57.7717 19.1667 58.8315 19.6057 59.6129 20.3871C60.3943 21.1685 60.8333 22.2283 60.8333 23.3333V48.3333Z" fill="black"/>
<path d="M29.5833 29.5834H40C40.5525 29.5834 41.0824 29.3639 41.4731 28.9732C41.8638 28.5825 42.0833 28.0526 42.0833 27.5001C42.0833 26.9475 41.8638 26.4176 41.4731 26.0269C41.0824 25.6362 40.5525 25.4167 40 25.4167H29.5833C29.0308 25.4167 28.5009 25.6362 28.1102 26.0269C27.7195 26.4176 27.5 26.9475 27.5 27.5001C27.5 28.0526 27.7195 28.5825 28.1102 28.9732C28.5009 29.3639 29.0308 29.5834 29.5833 29.5834Z" fill="black"/>
<path d="M50.4167 33.75H29.5833C29.0308 33.75 28.5009 33.9695 28.1102 34.3602C27.7195 34.7509 27.5 35.2808 27.5 35.8333C27.5 36.3859 27.7195 36.9158 28.1102 37.3065C28.5009 37.6972 29.0308 37.9167 29.5833 37.9167H50.4167C50.9692 37.9167 51.4991 37.6972 51.8898 37.3065C52.2805 36.9158 52.5 36.3859 52.5 35.8333C52.5 35.2808 52.2805 34.7509 51.8898 34.3602C51.4991 33.9695 50.9692 33.75 50.4167 33.75Z" fill="black"/>
<path d="M50.4167 42.0833H29.5833C29.0308 42.0833 28.5009 42.3027 28.1102 42.6934C27.7195 43.0841 27.5 43.6141 27.5 44.1666C27.5 44.7191 27.7195 45.249 28.1102 45.6397C28.5009 46.0304 29.0308 46.2499 29.5833 46.2499H50.4167C50.9692 46.2499 51.4991 46.0304 51.8898 45.6397C52.2805 45.249 52.5 44.7191 52.5 44.1666C52.5 43.6141 52.2805 43.0841 51.8898 42.6934C51.4991 42.3027 50.9692 42.0833 50.4167 42.0833Z" fill="black"/>
</g>
<defs>
<clipPath id="clip0_202_27">
<rect width="50" height="50" fill="white" transform="translate(15 15)"/>
</clipPath>
</defs>
</svg>
