<?xml version="1.0"?>
<svg xmlns="http://www.w3.org/2000/svg" xmlns:xlink="http://www.w3.org/1999/xlink" xmlns:svgjs="http://svgjs.com/svgjs" version="1.1" width="512" height="512" x="0" y="0" viewBox="0 0 380.734 380.734" style="enable-background:new 0 0 512 512" xml:space="preserve" class=""><g>
<g xmlns="http://www.w3.org/2000/svg">
	<path style="" d="M190.367,0C85.23,0,0,85.23,0,190.367s85.23,190.367,190.367,190.367s190.367-85.23,190.367-190.367   S295.504,0,190.367,0z M299.002,298.36c-28.996,28.996-67.57,44.959-108.634,44.959S110.723,327.35,81.733,298.36   c-28.865-28.876-44.769-67.227-44.769-107.993c0-40.771,15.904-79.128,44.769-107.993c28.99-28.996,67.57-44.959,108.634-44.959   c41.054,0,79.639,15.969,108.629,44.959c28.871,28.865,44.763,67.221,44.763,107.993   C343.765,231.133,327.867,269.489,299.002,298.36z" fill="#ff8f00" data-original="#010002" class=""/>
</g>
<g xmlns="http://www.w3.org/2000/svg">
</g>
<g xmlns="http://www.w3.org/2000/svg">
</g>
<g xmlns="http://www.w3.org/2000/svg">
</g>
<g xmlns="http://www.w3.org/2000/svg">
</g>
<g xmlns="http://www.w3.org/2000/svg">
</g>
<g xmlns="http://www.w3.org/2000/svg">
</g>
<g xmlns="http://www.w3.org/2000/svg">
</g>
<g xmlns="http://www.w3.org/2000/svg">
</g>
<g xmlns="http://www.w3.org/2000/svg">
</g>
<g xmlns="http://www.w3.org/2000/svg">
</g>
<g xmlns="http://www.w3.org/2000/svg">
</g>
<g xmlns="http://www.w3.org/2000/svg">
</g>
<g xmlns="http://www.w3.org/2000/svg">
</g>
<g xmlns="http://www.w3.org/2000/svg">
</g>
<g xmlns="http://www.w3.org/2000/svg">
</g>
</g></svg>
