<svg width="80" height="80" viewBox="0 0 80 80" fill="none" xmlns="http://www.w3.org/2000/svg">
<circle opacity="0.2" cx="40" cy="40" r="20" fill="#FEC108"/>
<mask id="mask0_416_46" style="mask-type:alpha" maskUnits="userSpaceOnUse" x="15" y="15" width="50" height="50">
<g clip-path="url(#clip0_416_46)">
<path d="M64.6584 33.3208C64.2322 31.9644 63.3808 30.7811 62.2301 29.9459C61.0794 29.1107 59.6905 28.668 58.2688 28.6833H49.1667L46.4021 20.0667C45.9674 18.7103 45.1131 17.5271 43.9625 16.6876C42.8118 15.8482 41.4243 15.3958 40 15.3958C38.5757 15.3958 37.1882 15.8482 36.0376 16.6876C34.887 17.5271 34.0327 18.7103 33.5979 20.0667L30.8333 28.6833H21.7313C20.3141 28.6853 18.9337 29.1352 17.7875 29.9685C16.6412 30.8019 15.7876 31.9762 15.3486 33.3237C14.9096 34.6712 14.9076 36.123 15.343 37.4716C15.7784 38.8203 16.6289 39.9969 17.7729 40.8333L25.1813 46.25L22.3646 54.9729C21.9094 56.3258 21.9036 57.7896 22.3481 59.146C22.7927 60.5024 23.6636 61.6789 24.8313 62.5C25.9789 63.3474 27.3696 63.8014 28.7962 63.7943C30.2227 63.7872 31.6088 63.3193 32.7479 62.4604L40 57.1229L47.2542 62.4542C48.3997 63.2968 49.7829 63.7544 51.205 63.7614C52.627 63.7683 54.0146 63.3241 55.1683 62.4927C56.322 61.6613 57.1823 60.4855 57.6256 59.1343C58.0689 57.7831 58.0724 56.3262 57.6354 54.9729L54.8188 46.25L62.2354 40.8333C63.3926 40.0074 64.253 38.8308 64.6894 37.4778C65.1257 36.1248 65.1149 34.6672 64.6584 33.3208ZM59.7771 37.4687L51.1438 43.7792C50.7892 44.0378 50.5253 44.4019 50.3899 44.8194C50.2545 45.237 50.2544 45.6866 50.3896 46.1042L53.6709 56.25C53.8369 56.7646 53.8355 57.3186 53.6668 57.8323C53.4981 58.346 53.1709 58.7931 52.7322 59.1091C52.2934 59.4251 51.7658 59.5939 51.225 59.5912C50.6843 59.5884 50.1584 59.4142 49.7229 59.0937L41.2333 52.8437C40.8758 52.5811 40.4437 52.4394 40 52.4394C39.5563 52.4394 39.1243 52.5811 38.7667 52.8437L30.2771 59.0937C29.8418 59.4186 29.3145 59.5963 28.7714 59.6012C28.2283 59.6062 27.6978 59.438 27.2567 59.1211C26.8157 58.8043 26.487 58.3552 26.3183 57.8389C26.1497 57.3227 26.1498 56.7661 26.3188 56.25L29.6104 46.1042C29.7457 45.6866 29.7456 45.237 29.6101 44.8194C29.4747 44.4019 29.2109 44.0378 28.8563 43.7792L20.2229 37.4687C19.7881 37.1504 19.4651 36.7028 19.2999 36.1899C19.1347 35.6769 19.1358 35.1249 19.3031 34.6127C19.4704 34.1004 19.7953 33.6542 20.2313 33.3376C20.6674 33.021 21.1924 32.8504 21.7313 32.85H32.3563C32.7973 32.85 33.227 32.71 33.5834 32.4501C33.9399 32.1903 34.2046 31.8241 34.3396 31.4042L37.5688 21.3396C37.7345 20.8245 38.0594 20.3754 38.4967 20.0568C38.934 19.7381 39.4611 19.5665 40.0021 19.5665C40.5431 19.5665 41.0702 19.7381 41.5075 20.0568C41.9448 20.3754 42.2697 20.8245 42.4354 21.3396L45.6646 31.4042C45.7996 31.8241 46.0643 32.1903 46.4208 32.4501C46.7772 32.71 47.2069 32.85 47.6479 32.85H58.2729C58.8118 32.8504 59.3368 33.021 59.7729 33.3376C60.2089 33.6542 60.5338 34.1004 60.7011 34.6127C60.8684 35.1249 60.8695 35.6769 60.7043 36.1899C60.5391 36.7028 60.2161 37.1504 59.7813 37.4687H59.7771Z" fill="black"/>
</g>
</mask>
<g mask="url(#mask0_416_46)">
<rect x="15" y="15" width="50" height="54" fill="#FEC108"/>
</g>
<defs>
<clipPath id="clip0_416_46">
<rect width="50" height="50" fill="white" transform="translate(15 15)"/>
</clipPath>
</defs>
</svg>
