<svg width="80" height="80" viewBox="0 0 80 80" fill="none" xmlns="http://www.w3.org/2000/svg">
<g clip-path="url(#clip0_415_7)">
<path d="M64.3896 61.4438L51.9542 49.0083C55.343 44.8637 57.0091 39.5752 56.608 34.2366C56.2069 28.898 53.7692 23.9178 49.7991 20.3261C45.8291 16.7344 40.6304 14.806 35.2784 14.9398C29.9264 15.0737 24.8306 17.2594 21.045 21.045C17.2594 24.8306 15.0737 29.9264 14.9398 35.2784C14.806 40.6304 16.7344 45.8291 20.3261 49.7991C23.9178 53.7692 28.898 56.2069 34.2366 56.608C39.5752 57.0091 44.8637 55.343 49.0083 51.9542L61.4438 64.3896C61.8367 64.7691 62.3629 64.9791 62.9092 64.9743C63.4554 64.9696 63.9779 64.7505 64.3642 64.3642C64.7505 63.9779 64.9696 63.4554 64.9743 62.9092C64.9791 62.3629 64.7691 61.8367 64.3896 61.4438ZM35.8333 52.5C32.537 52.5 29.3147 51.5225 26.5738 49.6912C23.833 47.8598 21.6968 45.2568 20.4353 42.2114C19.1739 39.166 18.8438 35.8148 19.4869 32.5818C20.13 29.3488 21.7173 26.3791 24.0482 24.0482C26.3791 21.7173 29.3488 20.13 32.5818 19.4869C35.8148 18.8438 39.166 19.1739 42.2114 20.4353C45.2568 21.6968 47.8598 23.833 49.6912 26.5738C51.5225 29.3147 52.5 32.537 52.5 35.8333C52.495 40.2521 50.7375 44.4884 47.613 47.613C44.4884 50.7375 40.2521 52.495 35.8333 52.5Z" fill="black"/>
</g>
<defs>
<clipPath id="clip0_415_7">
<rect width="50" height="50" fill="white" transform="translate(15 15)"/>
</clipPath>
</defs>
</svg>
