<svg width="80" height="80" viewBox="0 0 80 80" fill="none" xmlns="http://www.w3.org/2000/svg">
<g clip-path="url(#clip0_416_61)">
<path d="M40 31.6667C38.3518 31.6667 36.7407 32.1554 35.3703 33.0711C33.9998 33.9868 32.9317 35.2882 32.301 36.811C31.6703 38.3337 31.5052 40.0092 31.8268 41.6257C32.1483 43.2423 32.942 44.7271 34.1074 45.8925C35.2729 47.058 36.7577 47.8517 38.3743 48.1732C39.9908 48.4947 41.6663 48.3297 43.189 47.699C44.7118 47.0683 46.0132 46.0001 46.9289 44.6297C47.8446 43.2593 48.3333 41.6482 48.3333 40C48.3333 37.7899 47.4554 35.6702 45.8926 34.1074C44.3298 32.5446 42.2101 31.6667 40 31.6667ZM40 44.1667C39.1759 44.1667 38.3703 43.9223 37.6851 43.4644C36.9999 43.0066 36.4659 42.3559 36.1505 41.5945C35.8351 40.8331 35.7526 39.9954 35.9134 39.1871C36.0742 38.3789 36.471 37.6364 37.0537 37.0537C37.6364 36.471 38.3789 36.0742 39.1871 35.9134C39.9954 35.7526 40.8332 35.8351 41.5945 36.1505C42.3559 36.4659 43.0066 36.9999 43.4645 37.6851C43.9223 38.3703 44.1667 39.1759 44.1667 40C44.1667 41.1051 43.7277 42.1649 42.9463 42.9463C42.1649 43.7277 41.1051 44.1667 40 44.1667Z" fill="black"/>
<path d="M59.3625 43.9583L58.4375 43.425C58.8539 41.1593 58.8539 38.8366 58.4375 36.5708L59.3625 36.0375C60.0738 35.6271 60.6974 35.0806 61.1975 34.4293C61.6976 33.7779 62.0646 33.0345 62.2774 32.2413C62.4902 31.4481 62.5447 30.6208 62.4377 29.8066C62.3308 28.9924 62.0645 28.2072 61.6542 27.4958C61.2438 26.7845 60.6973 26.161 60.046 25.6608C59.3946 25.1607 58.6511 24.7938 57.8579 24.581C57.0648 24.3682 56.2375 24.3137 55.4232 24.4206C54.609 24.5275 53.8238 24.7938 53.1125 25.2042L52.1854 25.7396C50.4344 24.2436 48.4222 23.0838 46.25 22.3187V21.25C46.25 19.5924 45.5915 18.0027 44.4194 16.8306C43.2473 15.6585 41.6576 15 40 15C38.3424 15 36.7527 15.6585 35.5806 16.8306C34.4085 18.0027 33.75 19.5924 33.75 21.25V22.3187C31.5779 23.0866 29.5663 24.2492 27.8167 25.7479L26.8854 25.2083C25.4488 24.3795 23.7418 24.1554 22.14 24.5851C20.5381 25.0149 19.1725 26.0634 18.3437 27.5C17.5149 28.9366 17.2908 30.6436 17.7205 32.2455C18.1503 33.8473 19.1988 35.2129 20.6354 36.0417L21.5604 36.575C21.144 38.8407 21.144 41.1634 21.5604 43.4292L20.6354 43.9625C19.1988 44.7913 18.1503 46.1568 17.7205 47.7587C17.2908 49.3606 17.5149 51.0676 18.3437 52.5042C19.1725 53.9408 20.5381 54.9893 22.14 55.419C23.7418 55.8488 25.4488 55.6246 26.8854 54.7958L27.8125 54.2604C29.5641 55.7566 31.577 56.9164 33.75 57.6812V58.75C33.75 60.4076 34.4085 61.9973 35.5806 63.1694C36.7527 64.3415 38.3424 65 40 65C41.6576 65 43.2473 64.3415 44.4194 63.1694C45.5915 61.9973 46.25 60.4076 46.25 58.75V57.6812C48.4221 56.9134 50.4336 55.7508 52.1833 54.2521L53.1146 54.7896C54.5512 55.6184 56.2582 55.8426 57.86 55.4128C59.4619 54.983 60.8274 53.9345 61.6562 52.4979C62.485 51.0613 62.7092 49.3543 62.2794 47.7525C61.8497 46.1506 60.8012 44.7851 59.3646 43.9562L59.3625 43.9583ZM54.0542 36.0917C54.7597 38.648 54.7597 41.3478 54.0542 43.9042C53.931 44.3491 53.9591 44.8224 54.134 45.2496C54.309 45.6768 54.6209 46.0339 55.0208 46.2646L57.2792 47.5687C57.7579 47.845 58.1073 48.3002 58.2505 48.834C58.3937 49.3679 58.319 49.9369 58.0427 50.4156C57.7664 50.8944 57.3113 51.2438 56.7774 51.387C56.2435 51.5302 55.6746 51.4554 55.1958 51.1792L52.9333 49.8708C52.5331 49.639 52.0671 49.547 51.6088 49.6092C51.1505 49.6715 50.726 49.8844 50.4021 50.2146C48.5477 52.1076 46.2116 53.4583 43.6458 54.1208C43.198 54.236 42.8012 54.4968 42.5179 54.8623C42.2346 55.2278 42.081 55.6772 42.0812 56.1396V58.75C42.0812 59.3025 41.8617 59.8324 41.471 60.2231C41.0803 60.6138 40.5504 60.8333 39.9979 60.8333C39.4454 60.8333 38.9155 60.6138 38.5248 60.2231C38.1341 59.8324 37.9146 59.3025 37.9146 58.75V56.1417C37.9148 55.6793 37.7612 55.2299 37.4779 54.8644C37.1947 54.4989 36.7978 54.2381 36.35 54.1229C33.784 53.4577 31.4486 52.1041 29.5958 50.2083C29.2719 49.8782 28.8474 49.6652 28.3891 49.603C27.9308 49.5407 27.4648 49.6328 27.0646 49.8646L24.8062 51.1708C24.5692 51.3098 24.3071 51.4005 24.0348 51.4377C23.7626 51.4749 23.4857 51.4579 23.2201 51.3877C22.9545 51.3175 22.7054 51.1954 22.4871 51.0285C22.2689 50.8616 22.0858 50.6532 21.9484 50.4153C21.811 50.1773 21.7221 49.9146 21.6867 49.6421C21.6512 49.3696 21.6701 49.0929 21.7421 48.8277C21.814 48.5626 21.9378 48.3143 22.1061 48.0971C22.2744 47.88 22.4841 47.6983 22.7229 47.5625L24.9812 46.2583C25.3811 46.0276 25.6931 45.6706 25.868 45.2434C26.043 44.8161 26.0711 44.3429 25.9479 43.8979C25.2424 41.3415 25.2424 38.6418 25.9479 36.0854C26.0689 35.6414 26.0394 35.1699 25.8642 34.7444C25.6889 34.3189 25.3777 33.9633 24.9792 33.7333L22.7208 32.4292C22.2421 32.1529 21.8926 31.6978 21.7494 31.1639C21.6063 30.63 21.681 30.0611 21.9573 29.5823C22.2336 29.1035 22.6887 28.7541 23.2226 28.6109C23.7565 28.4677 24.3254 28.5425 24.8042 28.8187L27.0667 30.1271C27.4658 30.3594 27.9308 30.4525 28.3886 30.3918C28.8464 30.3311 29.2711 30.12 29.5958 29.7917C31.4502 27.8986 33.7863 26.548 36.3521 25.8854C36.8013 25.7699 37.1992 25.5078 37.4826 25.1406C37.766 24.7734 37.9187 24.3222 37.9167 23.8583V21.25C37.9167 20.6975 38.1362 20.1676 38.5269 19.7769C38.9176 19.3862 39.4475 19.1667 40 19.1667C40.5525 19.1667 41.0824 19.3862 41.4731 19.7769C41.8638 20.1676 42.0833 20.6975 42.0833 21.25V23.8583C42.0831 24.3207 42.2367 24.7701 42.52 25.1356C42.8032 25.5011 43.2001 25.7619 43.6479 25.8771C46.2146 26.542 48.5508 27.8956 50.4042 29.7917C50.7281 30.1218 51.1526 30.3348 51.6109 30.397C52.0692 30.4593 52.5352 30.3672 52.9354 30.1354L55.1937 28.8292C55.4308 28.6902 55.6929 28.5995 55.9651 28.5623C56.2374 28.5251 56.5143 28.5421 56.7799 28.6123C57.0455 28.6825 57.2946 28.8046 57.5129 28.9715C57.7311 29.1384 57.9142 29.3468 58.0516 29.5847C58.189 29.8227 58.2779 30.0854 58.3133 30.3579C58.3487 30.6304 58.3299 30.9071 58.2579 31.1723C58.1859 31.4374 58.0622 31.6857 57.8939 31.9029C57.7255 32.12 57.5159 32.3017 57.2771 32.4375L55.0187 33.7417C54.6209 33.9723 54.3106 34.3281 54.1361 34.7535C53.9616 35.179 53.9328 35.6502 54.0542 36.0938V36.0917Z" fill="black"/>
</g>
<defs>
<clipPath id="clip0_416_61">
<rect width="50" height="50" fill="white" transform="translate(15 15)"/>
</clipPath>
</defs>
</svg>
