<svg width="512" height="512" viewBox="0 0 512 512" fill="none" xmlns="http://www.w3.org/2000/svg">
<path d="M362.667 234.667H277.333V149.333C277.333 143.675 275.086 138.249 271.085 134.248C267.084 130.248 261.658 128 256 128C250.342 128 244.916 130.248 240.915 134.248C236.914 138.249 234.667 143.675 234.667 149.333V234.667H149.333C143.675 234.667 138.249 236.914 134.248 240.915C130.248 244.916 128 250.342 128 256C128 261.658 130.248 267.084 134.248 271.085C138.249 275.086 143.675 277.333 149.333 277.333H234.667V362.667C234.667 368.325 236.914 373.751 240.915 377.752C244.916 381.752 250.342 384 256 384C261.658 384 267.084 381.752 271.085 377.752C275.086 373.751 277.333 368.325 277.333 362.667V277.333H362.667C368.325 277.333 373.751 275.086 377.752 271.085C381.752 267.084 384 261.658 384 256C384 250.342 381.752 244.916 377.752 240.915C373.751 236.914 368.325 234.667 362.667 234.667Z" fill="black" fill-opacity="0.65"/>
</svg>
