<svg width="512" height="512" viewBox="0 0 512 512" fill="none" xmlns="http://www.w3.org/2000/svg">
<path d="M234.562 106.771C223.339 106.875 212.608 111.397 204.696 119.357L112.962 210.877C108.989 214.875 106.759 220.282 106.759 225.917C106.759 231.553 108.989 236.96 112.962 240.957C114.946 242.957 117.305 244.544 119.905 245.627C122.504 246.71 125.293 247.268 128.109 247.268C130.925 247.268 133.714 246.71 136.313 245.627C138.913 244.544 141.272 242.957 143.256 240.957L213.229 170.771V384.104C213.229 389.762 215.477 395.188 219.477 399.189C223.478 403.19 228.904 405.438 234.562 405.438C240.22 405.438 245.647 403.19 249.647 399.189C253.648 395.188 255.896 389.762 255.896 384.104L255.896 170.771L326.082 240.957C330.071 244.975 335.493 247.243 341.154 247.263C346.815 247.283 352.252 245.053 356.269 241.064C360.286 237.075 362.554 231.654 362.574 225.993C362.594 220.332 360.365 214.895 356.376 210.877L264.642 119.357C256.678 111.345 245.86 106.818 234.562 106.771Z" fill="#41AC9F"/>
</svg>
