<svg width="20" height="20" viewBox="0 0 20 20" fill="none" xmlns="http://www.w3.org/2000/svg">
<rect x="0.00012207" y="0.000106812" width="20" height="20" fill="#C4C4C4"/>
<g opacity="0.85">
<path d="M0.00012207 20.0001L2.00012 18.0001H18.0001L20.0001 20.0001H0.00012207Z" fill="black"/>
<path d="M0.00012207 20.0001L2.00012 18.0001H18.0001L20.0001 20.0001H0.00012207Z" fill="black"/>
</g>
<g opacity="0.85">
<path d="M20.0001 20.0001L18.0001 18.0001L18.0001 2.00011L20.0001 0.000106812L20.0001 20.0001Z" fill="black"/>
<path d="M20.0001 20.0001L18.0001 18.0001L18.0001 2.00011L20.0001 0.000106812L20.0001 20.0001Z" fill="black"/>
</g>
<g opacity="0.85">
<path d="M20 0L18 2.00002L2.00002 2.00019L0 0.000207169L20 0Z" fill="white"/>
<path d="M20 0L18 2.00002L2.00002 2.00019L0 0.000207169L20 0Z" fill="white"/>
</g>
<g opacity="0.85">
<path d="M0 0.000213623L2.00002 2.00019L2.00019 18.0002L0.000207169 20.0002L0 0.000213623Z" fill="white"/>
<path d="M0 0.000213623L2.00002 2.00019L2.00019 18.0002L0.000207169 20.0002L0 0.000213623Z" fill="white"/>
</g>
</svg>
